<svg version="1.1" id="Layer_1" xmlns:x="ns_extend;" xmlns:i="ns_ai;" xmlns:graph="ns_graphs;" xmlns="http://www.w3.org/2000/svg" xmlns:xlink="http://www.w3.org/1999/xlink" x="0px" y="0px" viewBox="0 0 54.8 54.9" style="enable-background:new 0 0 54.8 54.9;" xml:space="preserve">
 <style type="text/css">
  .st0{fill:#19212E;}
	.st1{opacity:0.6;fill:#19212E;enable-background:new    ;}
	.st2{opacity:0.3;fill:#19212E;enable-background:new    ;}
 </style>
 <metadata>
  <sfw xmlns="ns_sfw;">
   <slices>
   </slices>
   <sliceSourceBounds bottomLeftOrigin="true" height="54.9" width="54.8" x="-165.4" y="49.9">
   </sliceSourceBounds>
  </sfw>
 </metadata>
 <g>
  <g>
   <g>
    <g>
     <g>
      <g>
       <g>
        <path class="st0" d="M54.5,31.7c-0.9,5.7-3.5,10.9-7.7,15.1c-4.2,4.2-9.4,6.8-15.1,7.7c0,0,0-0.1,0-0.1v0
								c0-0.1,0-0.1-0.1-0.3c0-0.1-0.1-0.3-0.1-0.4c-0.2-0.7-0.4-1.5-0.5-2.2v0c0-0.1,0-0.2,0-0.3v0c0-0.1,0-0.2,0-0.2v-0.1
								c0-0.1,0-0.2,0-0.3c0-0.2,0-0.5,0-0.8v-0.1c0,0,0-0.1,0-0.1V49c0-0.3,0-0.6,0-0.9c0-9.7,7.9-17.6,17.6-17.6
								c0.3,0,0.6,0,0.9,0h0.1c0,0,0.1,0,0.1,0h0.1c0.2,0,0.5,0,0.8,0.1c0.1,0,0.2,0,0.4,0c0.1,0,0.2,0,0.2,0h0c0.1,0,0.2,0,0.3,0h0
								c0.8,0.1,1.5,0.3,2.3,0.6c0.1,0,0.3,0.1,0.4,0.1c0.1,0,0.1,0,0.2,0.1L54.5,31.7C54.4,31.6,54.5,31.7,54.5,31.7z">
        </path>
        <path class="st1" d="M54.8,27.7L54.8,27.7c-0.5-0.1-0.9-0.2-1.4-0.4c0,0-0.1,0-0.2,0c-0.4-0.1-0.8-0.2-1.2-0.2c0,0,0,0,0,0
								c-0.1,0-0.2,0-0.3,0h-0.1c-0.1,0-0.3,0-0.4,0c-0.1,0-0.3,0-0.4,0c-0.3,0-0.6,0-0.9-0.1c-0.1,0-0.2,0-0.3,0h-0.2
								c-0.3,0-0.7,0-1.1,0c-11.9,0-21.5,9.6-21.5,21.5c0,0.3,0,0.7,0,1.1v0.2c0,0.1,0,0.2,0,0.3c0,0.3,0,0.6,0.1,0.9
								c0,0.1,0,0.3,0,0.4c0,0.1,0,0.3,0,0.4c0,0.2,0,0.3,0.1,0.5c0.1,0.9,0.4,1.9,0.7,2.8c0,0,0,0,0,0C21.6,55,15.9,53.1,11,49.5
								c0-0.1,0-0.2,0-0.2c0-0.3,0-0.6,0-0.9c0-20.5,16.7-37.1,37.2-37.1c0.3,0,0.6,0,0.9,0c0.1,0,0.2,0,0.2,0
								C53,15.8,54.9,21.6,54.8,27.7z">
        </path>
        <path class="st2" d="M45.9,7.1c-0.2,0-0.4,0-0.6,0c-0.3,0-0.6,0-1,0.1c-0.1,0-0.2,0-0.3,0c-0.1,0-0.1,0-0.2,0
								c-0.6,0-1.2,0.1-1.8,0.2c-0.4,0-0.8,0.1-1.3,0.2c-0.2,0-0.5,0.1-0.8,0.1c-0.3,0-0.6,0.1-0.9,0.2c-0.1,0-0.2,0-0.3,0.1
								c-0.2,0-0.4,0.1-0.6,0.1c-0.1,0-0.1,0-0.2,0c-0.2,0-0.5,0.1-0.7,0.2c-0.1,0-0.2,0-0.3,0.1c-0.2,0-0.3,0.1-0.5,0.1
								c-0.1,0-0.3,0.1-0.4,0.1c-0.2,0-0.4,0.1-0.6,0.2c0,0-0.1,0-0.1,0c-0.3,0.1-0.6,0.2-0.9,0.3c-0.3,0.1-0.6,0.2-0.9,0.3
								c-0.2,0-0.4,0.1-0.5,0.2c-0.2,0-0.3,0.1-0.5,0.2c-0.3,0.1-0.6,0.2-0.9,0.4c-0.5,0.2-1.1,0.5-1.6,0.8c-0.7,0.3-1.3,0.7-2,1.1
								c-0.2,0.1-0.4,0.2-0.6,0.4c-0.2,0.1-0.5,0.3-0.8,0.5c-0.2,0.1-0.5,0.3-0.7,0.4c-0.2,0.1-0.4,0.3-0.6,0.4
								c-0.2,0.1-0.4,0.3-0.6,0.4c-0.5,0.3-0.9,0.7-1.4,1c-0.2,0.1-0.3,0.3-0.5,0.4c-0.3,0.2-0.6,0.5-0.9,0.8
								c-0.2,0.2-0.5,0.4-0.7,0.6c-0.2,0.1-0.3,0.3-0.5,0.5c-0.6,0.6-1.2,1.1-1.8,1.8c-0.2,0.2-0.3,0.3-0.5,0.5
								c-0.2,0.2-0.4,0.5-0.6,0.7c-0.3,0.3-0.5,0.6-0.8,0.9c-0.1,0.2-0.3,0.3-0.4,0.5c-0.3,0.4-0.7,0.9-1,1.4
								c-0.1,0.2-0.3,0.4-0.4,0.6c-0.1,0.2-0.3,0.4-0.4,0.6c-0.1,0.2-0.3,0.4-0.4,0.7s-0.3,0.5-0.5,0.8c-0.1,0.2-0.2,0.4-0.4,0.6
								c-0.4,0.6-0.7,1.3-1.1,2c-0.3,0.5-0.5,1.1-0.8,1.6c-0.1,0.3-0.3,0.6-0.4,0.9c0,0.1-0.1,0.3-0.2,0.5c-0.1,0.2-0.1,0.4-0.2,0.5
								c-0.1,0.3-0.2,0.6-0.3,0.9c-0.1,0.3-0.2,0.6-0.3,0.9c0,0,0,0.1,0,0.1c-0.1,0.2-0.1,0.4-0.2,0.6c0,0.1-0.1,0.3-0.1,0.4
								c0,0.2-0.1,0.3-0.1,0.5c0,0.1,0,0.2-0.1,0.3c0,0.2-0.1,0.5-0.2,0.7c0,0,0,0.1,0,0.2c0,0.2-0.1,0.4-0.1,0.6
								c0,0.1,0,0.2-0.1,0.3c0,0.3-0.1,0.6-0.2,0.9c0,0.2-0.1,0.5-0.1,0.8c-0.1,0.4-0.1,0.8-0.2,1.3c-0.1,0.6-0.1,1.2-0.2,1.8
								c0,0.1,0,0.1,0,0.2c0,0.1,0,0.2,0,0.3c0,0.3,0,0.6-0.1,1c0,0.2,0,0.4,0,0.6C2.6,40.8,0.1,34.5,0,27.7
								c-0.1-7.2,2.6-14,7.5-19.2C7.7,8.3,7.9,8.2,8,8c0.1-0.1,0.3-0.3,0.5-0.5C13.7,2.7,20.4,0,27.4,0h0.3
								C34.5,0.1,40.9,2.6,45.9,7.1z">
        </path>
       </g>
      </g>
     </g>
    </g>
   </g>
  </g>
 </g>
</svg>